<svg xmlns="http://www.w3.org/2000/svg" width="2em" height="2em" viewBox="0 0 24 24"><path fill="currentColor" d="M19.485 20.154l-6.262-6.262q-.75.639-1.725.989-.975.35-1.96.35-2.402 0-4.066-1.663-1.664-1.664-1.664-4.065T5.47 5.436q1.663-1.667 4.064-1.667 2.402 0 4.068 1.664 1.666 1.664 1.666 4.067 0 1.042-.369 2.017-.37.975-.97 1.668l6.262 6.261zM9.538 14.23q1.99 0 3.361-1.37 1.37-1.37 1.37-3.361 0-1.99-1.37-3.36-1.37-1.37-3.36-1.37-1.99 0-3.361 1.37-1.37 1.37-1.37 3.36 0 1.99 1.37 3.36 1.37 1.37 3.36 1.37"/></svg>